<?xml version="1.0" standalone="no"?>
<!DOCTYPE svg PUBLIC "-//W3C//DTD SVG 20010904//EN"
 "http://www.w3.org/TR/2001/REC-SVG-20010904/DTD/svg10.dtd">
<svg version="1.0" xmlns="http://www.w3.org/2000/svg"
 width="624.000000pt" height="624.000000pt" viewBox="0 0 624.000000 624.000000"
 preserveAspectRatio="xMidYMid meet">
<metadata>
Created by potrace 1.14, written by Peter Selinger 2001-2017
</metadata>
<g transform="translate(0.000000,624.000000) scale(0.100000,-0.100000)"
fill="#000000" stroke="none">
<path d="M1758 4323 l-1708 -1708 20 -95 c94 -447 266 -828 535 -1185 660
-874 1753 -1311 2835 -1134 663 109 1282 448 1722 944 l89 100 -1013 5 c-1133
6 -1044 0 -1208 81 -115 57 -248 188 -303 300 -216 441 54 954 534 1014 56 7
57 8 69 48 7 23 28 74 46 114 137 288 400 506 712 591 86 23 116 26 267 26
110 1 190 -4 225 -12 265 -65 477 -195 632 -389 l50 -63 113 0 c174 0 364 -58
483 -147 18 -14 36 -23 39 -20 13 13 24 257 19 407 -12 359 -79 687 -203 1000
-336 849 -1043 1495 -1913 1751 -51 15 -320 79 -332 79 -2 0 -771 -768 -1710
-1707z"/>
</g>
</svg>
